<svg width="40" height="26" viewBox="0 0 40 26" fill="none" xmlns="http://www.w3.org/2000/svg">
<path d="M25.1256 5.77778C25.9528 5.77778 26.4223 6.72491 25.9214 7.38326L20.7959 14.1205C20.3957 14.6466 19.6043 14.6466 19.2041 14.1205L14.0786 7.38325C13.5777 6.72491 14.0472 5.77778 14.8744 5.77778L25.1256 5.77778Z" fill="#E2DED3"/>
<path fill-rule="evenodd" clip-rule="evenodd" d="M19.2074 24.9696C19.6077 25.49 20.3923 25.49 20.7926 24.9696L38.7618 1.60971C39.2676 0.952092 38.7988 0 37.9691 0L2.03086 0C1.20119 0 0.732378 0.952091 1.23824 1.60971L19.2074 24.9696ZM19.2126 19.2166C19.613 19.728 20.387 19.728 20.7874 19.2166L32.3058 4.50537C32.8197 3.84899 32.3521 2.88889 31.5184 2.88889L8.48159 2.88889C7.64795 2.88889 7.1803 3.84899 7.69422 4.50537L19.2126 19.2166Z" fill="#E2DED3"/>
</svg>
